<!DOCTYPE svg PUBLIC "-//W3C//DTD SVG 1.1//EN" "http://www.w3.org/Graphics/SVG/1.1/DTD/svg11.dtd">
<!-- Uploaded to: SVG Repo, www.svgrepo.com, Transformed by: SVG Repo Mixer Tools -->
<svg fill="#1aef0b" height="800px" width="800px" version="1.1" id="Capa_1" xmlns="http://www.w3.org/2000/svg" xmlns:xlink="http://www.w3.org/1999/xlink" viewBox="0 0 60.00 60.00" xml:space="preserve" style="--darkreader-inline-fill: #15bf09; --darkreader-inline-stroke: #35f527;" stroke="#1aef0b" data-darkreader-inline-fill="" data-darkreader-inline-stroke="">
<g id="SVGRepo_bgCarrier" stroke-width="0">
<rect x="0" y="0" width="60.00" height="60.00" rx="30" fill="#0d0d0d" strokewidth="0" data-darkreader-inline-fill="" style="--darkreader-inline-fill: #0a0b0b;"/>
</g>
<g id="SVGRepo_tracerCarrier" stroke-linecap="round" stroke-linejoin="round"/>
<g id="SVGRepo_iconCarrier"> <path d="M30,0C13.458,0,0,13.458,0,30s13.458,30,30,30s30-13.458,30-30S46.542,0,30,0z M45.563,30.826l-22,15 C23.394,45.941,23.197,46,23,46c-0.16,0-0.321-0.038-0.467-0.116C22.205,45.711,22,45.371,22,45V15c0-0.371,0.205-0.711,0.533-0.884 c0.328-0.174,0.724-0.15,1.031,0.058l22,15C45.836,29.36,46,29.669,46,30S45.836,30.64,45.563,30.826z"/> </g>
</svg>